<?xml version="1.0" encoding="UTF-8" standalone="no"?>
<svg
   xmlns:dc="http://purl.org/dc/elements/1.1/"
   xmlns:cc="http://creativecommons.org/ns#"
   xmlns:rdf="http://www.w3.org/1999/02/22-rdf-syntax-ns#"
   xmlns:svg="http://www.w3.org/2000/svg"
   xmlns="http://www.w3.org/2000/svg"
   xmlns:sodipodi="http://sodipodi.sourceforge.net/DTD/sodipodi-0.dtd"
   xmlns:inkscape="http://www.inkscape.org/namespaces/inkscape"
   id="svg2851"
   version="1.1"
   viewBox="0 0 135.46718 135.46667"
   height="135.46667mm"
   width="135.46718mm"
   sodipodi:docname="logo_text_ww.svg"
   inkscape:export-filename="/home/johannes/Dokumente/Studium/Uni/saarsec/logo/logo_bb.png"
   inkscape:export-xdpi="150"
   inkscape:export-ydpi="150"
   inkscape:version="0.92.2 2405546, 2018-03-11">
  <sodipodi:namedview
     pagecolor="#ffffff"
     bordercolor="#666666"
     borderopacity="1"
     objecttolerance="10"
     gridtolerance="10"
     guidetolerance="10"
     inkscape:pageopacity="0"
     inkscape:pageshadow="2"
     inkscape:window-width="1920"
     inkscape:window-height="1029"
     id="namedview3919"
     showgrid="false"
     fit-margin-top="0"
     fit-margin-left="0"
     fit-margin-right="0"
     fit-margin-bottom="0"
     inkscape:zoom="2"
     inkscape:cx="106.89078"
     inkscape:cy="253.44251"
     inkscape:window-x="0"
     inkscape:window-y="22"
     inkscape:window-maximized="1"
     inkscape:current-layer="svg2851"
     showguides="true"
     inkscape:guide-bbox="true"
     inkscape:pagecheckerboard="true" />
  <defs
     id="defs2845">
    <marker
       style="overflow:visible"
       id="Arrow2Sstart"
       refX="0"
       refY="0"
       orient="auto">
      <path
         transform="matrix(0.3,0,0,0.3,-0.69,0)"
         d="M 8.7185878,4.0337352 -2.2072895,0.01601326 8.7185884,-4.0017078 c -1.7454984,2.3720609 -1.7354408,5.6174519 -6e-7,8.035443 z"
         style="fill:#ffffff;fill-opacity:1;fill-rule:evenodd;stroke:#ffffff;stroke-width:0.625;stroke-linejoin:round;stroke-opacity:1"
         id="path3492"
         inkscape:connector-curvature="0" />
    </marker>
    <marker
       style="overflow:visible"
       id="Arrow1Lend"
       refX="0"
       refY="0"
       orient="auto">
      <path
         transform="matrix(-0.8,0,0,-0.8,-10,0)"
         style="fill:#ffffff;fill-opacity:1;fill-rule:evenodd;stroke:#ffffff;stroke-width:1.00000003pt;stroke-opacity:1"
         d="M 0,0 5,-5 -12.5,0 5,5 Z"
         id="path3465"
         inkscape:connector-curvature="0" />
    </marker>
  </defs>
  <metadata
     id="metadata2848">
    <rdf:RDF>
      <cc:Work
         rdf:about="">
        <dc:format>image/svg+xml</dc:format>
        <dc:type
           rdf:resource="http://purl.org/dc/dcmitype/StillImage" />
        <dc:title />
      </cc:Work>
    </rdf:RDF>
  </metadata>
  <g
     id="g879">
    <path
       inkscape:connector-curvature="0"
       id="path874"
       d="M 63.45045,74.213789 42.126688,61.568567 36.888248,47.520329"
       style="opacity:1;fill:#000000;fill-rule:evenodd;stroke:#000000;stroke-width:0.92604154;stroke-linecap:butt;stroke-linejoin:round;stroke-miterlimit:4;stroke-dasharray:none;stroke-dashoffset:0;stroke-opacity:1;paint-order:normal" />
    <path
       style="opacity:1;fill:#000000;fill-rule:evenodd;stroke:#000000;stroke-width:0.92604154;stroke-linecap:butt;stroke-linejoin:round;stroke-miterlimit:4;stroke-dasharray:none;stroke-dashoffset:0;stroke-opacity:1;paint-order:normal"
       d="M 71.884327,74.213789 93.208089,61.568567 98.446529,47.520329"
       id="path883"
       inkscape:connector-curvature="0" />
    <path
       style="color:#000000;display:inline;overflow:visible;visibility:visible;opacity:1;fill:#000000;fill-opacity:1;fill-rule:nonzero;stroke:#000000;stroke-width:0.13229166;stroke-linecap:butt;stroke-linejoin:round;stroke-miterlimit:4;stroke-dasharray:none;stroke-dashoffset:0;stroke-opacity:1;marker:none;enable-background:accumulate"
       d="m 71.88412,74.213789 -4.21684,17.056766 v 0 L 63.45045,74.213789"
       id="path885"
       inkscape:connector-curvature="0"
       sodipodi:nodetypes="cccc" />
    <path
       sodipodi:nodetypes="ccccccccccccccccccccccccccccccccccc"
       inkscape:connector-curvature="0"
       d="M 78.444495,29.072261 97.050589,31.600078 71.88444,74.213531 Z m -21.554224,0 H 78.444495 L 71.88444,74.213531 H 63.450334 Z M 67.667387,91.270565 71.88444,74.213531 93.208089,61.568567 98.446657,47.519925 109.56657,36.344993 106.01553,78.514747 Z M 97.050589,31.600078 71.88444,74.213531 135.00411,10.653715 Z M 56.890271,29.072261 38.284187,31.600078 63.450334,74.213531 Z M 67.667387,91.270565 63.450334,74.213531 42.126688,61.568567 36.888113,47.519925 25.768203,36.344993 29.319259,78.514747 Z M 38.284187,31.600078 63.450334,74.213531 0.46306039,10.653715 Z"
       style="opacity:1;fill:none;fill-rule:evenodd;stroke:#000000;stroke-width:0.9260416;stroke-linecap:butt;stroke-linejoin:round;stroke-miterlimit:4;stroke-dasharray:none;stroke-dashoffset:0;stroke-opacity:1;paint-order:normal"
       id="path2895" />
    <g
       id="text1022"
       style="font-style:normal;font-variant:normal;font-weight:normal;font-stretch:normal;font-size:6.16647148px;line-height:14.45266724px;font-family:Times;-inkscape-font-specification:Times;text-align:start;letter-spacing:0px;word-spacing:0px;writing-mode:lr-tb;text-anchor:start;fill:#000000;fill-opacity:1;stroke:none;stroke-width:0.26458326px;stroke-linecap:butt;stroke-linejoin:miter;stroke-opacity:1"
       aria-label="saarsec">
      <path
         id="path852"
         style="font-style:normal;font-variant:normal;font-weight:normal;font-stretch:normal;font-size:55.49824524px;font-family:'Agency FB';-inkscape-font-specification:'Agency FB';fill:#000000;stroke-width:0.26458326px"
         d="m 14.389691,120.25356 q 0,3.06216 -3.062159,3.06216 H 3.0624121 q -3.06215903358,0 -3.06215903358,-3.06216 v -5.98882 H 3.5501897 v 5.93462 h 7.2895643 v -5.25715 l -9.4303658,-7.72315 q -1.35493763,-1.08395 -1.35493763,-2.81827 v -4.39 q 0,-3.062157 3.06215903,-3.062157 h 8.1567244 q 3.062159,0 3.062159,3.062157 v 5.25716 h -3.495739 v -5.20296 H 3.5501897 v 4.60679 l 9.5116623,7.72314 q 1.327839,1.05685 1.327839,2.87247 z" />
      <path
         id="path854"
         style="font-style:normal;font-variant:normal;font-weight:normal;font-stretch:normal;font-size:55.49824524px;font-family:'Agency FB';-inkscape-font-specification:'Agency FB';fill:#000000;stroke-width:0.26458326px"
         d="m 35.038939,123.31572 h -3.549936 v -0.73167 q -2.140802,0.29809 -4.281603,0.56908 -2.655678,0.32518 -4.254504,0.32518 -2.953764,0 -2.953764,-2.92666 v -9.62006 q 0,-3.03506 3.062159,-3.03506 H 31.5432 v -7.939935 h -7.750243 v 4.498395 h -3.495739 v -4.4442 q 0,-3.062157 3.03506,-3.062157 h 8.671601 q 3.03506,0 3.03506,3.062157 z M 31.5432,120.03677 v -9.32197 h -8.048329 v 9.48456 z" />
      <path
         id="path856"
         style="font-style:normal;font-variant:normal;font-weight:normal;font-stretch:normal;font-size:55.49824524px;font-family:'Agency FB';-inkscape-font-specification:'Agency FB';fill:#000000;stroke-width:0.26458326px"
         d="m 55.850781,123.31572 h -3.549936 v -0.73167 q -2.140802,0.29809 -4.281603,0.56908 -2.655678,0.32518 -4.254504,0.32518 -2.953764,0 -2.953764,-2.92666 v -9.62006 q 0,-3.03506 3.062159,-3.03506 h 8.481909 v -7.939935 h -7.750243 v 4.498395 H 41.10906 v -4.4442 q 0,-3.062157 3.03506,-3.062157 h 8.671601 q 3.03506,0 3.03506,3.062157 z m -3.495739,-3.27895 v -9.32197 h -8.048329 v 9.48456 z" />
      <path
         id="path858"
         style="font-style:normal;font-variant:normal;font-weight:normal;font-stretch:normal;font-size:55.49824524px;font-family:'Agency FB';-inkscape-font-specification:'Agency FB';fill:#000000;stroke-width:0.26458326px"
         d="M 75.551576,105.62023 H 72.00164 v -5.44685 l -6.639195,0.21679 v 22.92555 H 61.758311 V 96.948633 h 3.604134 V 97.6803 q 1.788518,-0.270988 3.604135,-0.569074 2.1679,-0.325185 3.604134,-0.325185 2.980862,0 2.980862,2.953764 z" />
      <path
         id="path860"
         style="font-style:normal;font-variant:normal;font-weight:normal;font-stretch:normal;font-size:55.49824524px;font-family:'Agency FB';-inkscape-font-specification:'Agency FB';fill:#000000;stroke-width:0.26458326px"
         d="m 94.385205,120.25356 q 0,3.06216 -3.062159,3.06216 h -8.26512 q -3.062159,0 -3.062159,-3.06216 v -5.98882 h 3.549937 v 5.93462 h 7.289564 v -5.25715 l -9.430366,-7.72315 q -1.354938,-1.08395 -1.354938,-2.81827 v -4.39 q 0,-3.062157 3.06216,-3.062157 h 8.156724 q 3.062159,0 3.062159,3.062157 v 5.25716 h -3.495739 v -5.20296 h -7.289564 v 4.60679 l 9.511662,7.72314 q 1.327839,1.05685 1.327839,2.87247 z" />
      <path
         id="path862"
         style="font-style:normal;font-variant:normal;font-weight:normal;font-stretch:normal;font-size:55.49824524px;font-family:'Agency FB';-inkscape-font-specification:'Agency FB';fill:#000000;stroke-width:0.26458326px"
         d="m 114.87187,120.25356 q 0,3.06216 -3.03506,3.06216 h -8.6716 q -3.03506,0 -3.03506,-3.06216 v -20.24277 q 0,-3.062157 3.03506,-3.062157 h 8.6716 q 3.03506,0 3.03506,3.062157 v 9.48457 l -1.21945,1.27364 h -10.02654 v 9.53876 h 7.75025 v -4.82358 h 3.49574 z m -3.49574,-12.35703 v -7.939935 h -7.75025 v 7.939935 z" />
      <path
         id="path864"
         style="font-style:normal;font-variant:normal;font-weight:normal;font-stretch:normal;font-size:55.49824524px;font-family:'Agency FB';-inkscape-font-specification:'Agency FB';fill:#000000;stroke-width:0.26458326px"
         d="m 135.46692,120.25356 q 0,3.06216 -3.03506,3.06216 h -8.56321 q -3.03506,0 -3.03506,-3.06216 v -20.24277 q 0,-3.062157 3.03506,-3.062157 h 8.56321 q 3.03506,0 3.03506,3.062157 v 5.25716 h -3.54994 v -5.14876 h -7.47926 v 20.02598 h 7.47926 v -5.88043 h 3.54994 z" />
    </g>
  </g>
</svg>
